<svg width="727" height="344" viewBox="0 0 727 344" fill="none" xmlns="http://www.w3.org/2000/svg">
<path d="M23.0002 28L51.5001 54.5C-56.4756 172.431 33.3795 257.647 98.0002 290.431C-29.5998 202.775 32.1669 106.12 76.5002 68L106.5 88L106.5 1L23.0002 28Z" fill="black"/>
<path d="M106.5 294.5C103.727 293.253 100.887 291.895 98.0002 290.431M98.0002 290.431C33.3795 257.647 -56.4756 172.431 51.5001 54.5L23.0002 28L106.5 1L106.5 88L76.5002 68C32.1669 106.12 -29.5998 202.775 98.0002 290.431Z" stroke="black"/>
<path d="M46.1954 334.646C44.4274 334.646 42.7501 334.215 41.1634 333.354C39.5768 332.47 38.3301 331.291 37.4234 329.818C37.2421 329.501 37.1514 329.127 37.1514 328.696C37.1514 327.993 37.3214 327.438 37.6614 327.03C38.0241 326.622 38.5001 326.418 39.0894 326.418C39.5881 326.418 40.0188 326.52 40.3814 326.724C40.7441 326.928 41.0614 327.257 41.3334 327.71C41.7641 328.435 42.4328 329.036 43.3394 329.512C44.2688 329.965 45.2208 330.192 46.1954 330.192C49.4594 330.192 51.0914 329.059 51.0914 326.792C51.0914 325.817 50.6834 324.933 49.8674 324.14C49.0741 323.347 47.8048 322.542 46.0594 321.726C43.9968 320.774 42.3874 319.913 41.2314 319.142C40.0981 318.349 39.2821 317.51 38.7834 316.626C38.2848 315.719 38.0354 314.654 38.0354 313.43C38.0354 312.025 38.4094 310.778 39.1574 309.69C39.9054 308.579 40.9368 307.718 42.2514 307.106C43.5661 306.471 45.0394 306.154 46.6714 306.154C48.4848 306.154 50.1508 306.562 51.6694 307.378C53.1881 308.171 54.3441 309.259 55.1374 310.642C55.3641 311.005 55.4774 311.379 55.4774 311.764C55.4774 312.308 55.2961 312.784 54.9334 313.192C54.5934 313.6 54.1628 313.804 53.6414 313.804C53.2561 313.804 52.8594 313.702 52.4514 313.498C52.0434 313.271 51.7261 312.999 51.4994 312.682C50.9781 311.957 50.3208 311.424 49.5274 311.084C48.7568 310.744 47.8048 310.574 46.6714 310.574C45.3341 310.574 44.2801 310.823 43.5094 311.322C42.7614 311.798 42.3874 312.501 42.3874 313.43C42.3874 313.997 42.5234 314.473 42.7954 314.858C43.0901 315.221 43.5774 315.595 44.2574 315.98C44.9601 316.365 46.1048 316.921 47.6914 317.646C50.4568 318.938 52.4401 320.287 53.6414 321.692C54.8654 323.097 55.4774 324.797 55.4774 326.792C55.4774 328.356 55.0921 329.739 54.3214 330.94C53.5508 332.119 52.4628 333.037 51.0574 333.694C49.6521 334.329 48.0314 334.646 46.1954 334.646ZM74.7055 331.11C75.3402 331.314 75.7935 331.552 76.0655 331.824C76.3602 332.096 76.5075 332.47 76.5075 332.946C76.5075 333.513 76.2582 333.989 75.7595 334.374C75.2835 334.782 74.7055 334.986 74.0255 334.986C73.0055 334.986 72.1215 334.68 71.3735 334.068C70.6482 333.456 70.2175 332.651 70.0815 331.654C69.9228 330.702 69.8435 329.489 69.8435 328.016C69.8435 327.132 69.8548 326.452 69.8775 325.976C69.0615 326.475 67.9622 326.973 66.5795 327.472C65.2422 327.925 64.2902 328.345 63.7235 328.73C63.1795 329.115 62.9075 329.557 62.9075 330.056C62.9075 330.351 63.0322 330.589 63.2815 330.77C63.5535 330.951 63.8822 331.042 64.2675 331.042C64.5395 331.042 64.8342 330.997 65.1515 330.906C65.4915 330.793 65.7748 330.634 66.0015 330.43C66.3188 330.113 66.7495 329.954 67.2935 329.954C67.8602 329.954 68.3135 330.135 68.6535 330.498C68.9935 330.861 69.1635 331.314 69.1635 331.858C69.1635 332.085 69.0955 332.357 68.9595 332.674C68.8462 332.969 68.7102 333.207 68.5515 333.388C67.5995 334.476 66.1715 335.02 64.2675 335.02C62.7035 335.02 61.4342 334.612 60.4595 333.796C59.4848 332.957 58.9975 331.869 58.9975 330.532C58.9975 327.608 61.3095 325.443 65.9335 324.038C67.3615 323.585 68.4268 323.154 69.1295 322.746C69.8322 322.315 70.1948 321.873 70.2175 321.42C70.1948 320.944 69.9342 320.57 69.4355 320.298C68.9368 320.003 68.2682 319.856 67.4295 319.856C65.6842 319.856 64.4942 320.457 63.8595 321.658C63.6782 321.998 63.4175 322.281 63.0775 322.508C62.7602 322.712 62.4202 322.814 62.0575 322.814C61.4908 322.814 61.0035 322.621 60.5955 322.236C60.1875 321.828 59.9835 321.341 59.9835 320.774C59.9835 319.935 60.3348 319.153 61.0375 318.428C61.7402 317.68 62.6695 317.079 63.8255 316.626C64.9815 316.173 66.1828 315.946 67.4295 315.946C69.5828 315.946 71.2375 316.433 72.3935 317.408C73.5495 318.383 74.1275 319.777 74.1275 321.59V321.964C73.9915 326.089 73.9235 328.424 73.9235 328.968C73.9235 329.331 73.9688 329.761 74.0595 330.26C74.0822 330.441 74.1615 330.623 74.2975 330.804C74.4562 330.963 74.5922 331.065 74.7055 331.11ZM108.253 331.178C108.638 331.495 108.921 331.801 109.103 332.096C109.307 332.391 109.409 332.742 109.409 333.15C109.409 333.649 109.182 334.045 108.729 334.34C108.275 334.657 107.743 334.816 107.131 334.816C105.997 334.816 105.102 334.317 104.445 333.32C103.81 332.323 103.504 330.815 103.527 328.798V323.664C103.527 322.553 103.243 321.703 102.677 321.114C102.133 320.502 101.317 320.196 100.229 320.196C98.9139 320.196 97.9279 320.581 97.2706 321.352C96.6133 322.1 96.2733 322.984 96.2506 324.004C96.2506 325.024 96.2393 326.441 96.2166 328.254C96.1939 330.045 96.1713 331.439 96.1486 332.436C96.1259 333.003 95.8993 333.456 95.4686 333.796C95.0606 334.136 94.6186 334.306 94.1426 334.306C93.5306 334.306 93.0319 334.136 92.6466 333.796C92.2613 333.433 92.0686 332.98 92.0686 332.436L92.1366 323.018C92.1366 322.202 91.8759 321.511 91.3546 320.944C90.8559 320.355 90.0966 320.06 89.0766 320.06C87.8526 320.06 86.8893 320.434 86.1866 321.182C85.5066 321.907 85.1553 322.769 85.1326 323.766L85.0986 323.732L84.9626 332.47C84.9626 333.059 84.7586 333.524 84.3506 333.864C83.9426 334.204 83.4099 334.374 82.7526 334.374C82.2766 334.374 81.8459 334.204 81.4606 333.864C81.0753 333.501 80.8826 333.037 80.8826 332.47C80.8826 330.271 80.9393 326.939 81.0526 322.474C81.0526 321.25 80.8486 320.468 80.4406 320.128C80.0553 319.811 79.7606 319.505 79.5566 319.21C79.3753 318.915 79.2846 318.553 79.2846 318.122C79.2846 317.623 79.5113 317.227 79.9646 316.932C80.4179 316.637 80.9506 316.49 81.5626 316.49C82.2426 316.49 82.8433 316.671 83.3646 317.034C83.8859 317.374 84.2939 317.907 84.5886 318.632C85.1553 317.929 85.8579 317.385 86.6966 317C87.5353 316.615 88.4646 316.422 89.4846 316.422C90.6633 316.422 91.7286 316.705 92.6806 317.272C93.6553 317.839 94.4486 318.621 95.0606 319.618C95.5819 318.643 96.3299 317.873 97.3046 317.306C98.2793 316.717 99.3673 316.422 100.569 316.422C102.767 316.422 104.49 317.023 105.737 318.224C106.983 319.403 107.607 321.125 107.607 323.392V328.832C107.584 329.285 107.618 329.739 107.709 330.192C107.822 330.645 108.003 330.974 108.253 331.178ZM127.752 328.9C128.296 328.9 128.727 329.07 129.044 329.41C129.384 329.75 129.554 330.169 129.554 330.668C129.554 331.348 129.384 331.869 129.044 332.232C128.228 333.116 127.151 333.807 125.814 334.306C124.499 334.805 123.094 335.054 121.598 335.054C119.785 335.054 118.164 334.669 116.736 333.898C115.308 333.127 114.186 332.062 113.37 330.702C112.577 329.319 112.18 327.744 112.18 325.976C112.18 324.14 112.588 322.485 113.404 321.012C114.243 319.516 115.365 318.349 116.77 317.51C118.175 316.649 119.728 316.218 121.428 316.218C122.947 316.218 124.295 316.456 125.474 316.932C126.675 317.385 127.616 318.043 128.296 318.904C128.976 319.743 129.316 320.729 129.316 321.862C129.316 322.905 128.987 323.834 128.33 324.65C127.673 325.466 126.755 326.101 125.576 326.554C124.42 327.007 123.094 327.234 121.598 327.234C119.445 327.234 117.665 326.837 116.26 326.044V326.112C116.26 327.608 116.736 328.798 117.688 329.682C118.663 330.543 119.966 330.974 121.598 330.974C122.618 330.974 123.445 330.861 124.08 330.634C124.715 330.407 125.361 330.045 126.018 329.546C126.607 329.115 127.185 328.9 127.752 328.9ZM121.428 320.298C119.388 320.298 117.949 321.012 117.11 322.44C118.402 323.256 119.898 323.664 121.598 323.664C122.663 323.664 123.536 323.517 124.216 323.222C124.896 322.905 125.236 322.531 125.236 322.1C125.236 321.579 124.873 321.148 124.148 320.808C123.445 320.468 122.539 320.298 121.428 320.298ZM162.969 330.872C163.354 331.189 163.637 331.495 163.819 331.79C164.023 332.085 164.125 332.447 164.125 332.878C164.125 333.377 163.898 333.773 163.445 334.068C162.991 334.363 162.459 334.51 161.847 334.51C160.532 334.51 159.557 333.875 158.923 332.606C158.175 333.286 157.302 333.796 156.305 334.136C155.33 334.499 154.265 334.68 153.109 334.68C151.295 334.68 149.663 334.295 148.213 333.524C146.785 332.753 145.663 331.665 144.847 330.26C144.053 328.855 143.657 327.234 143.657 325.398C143.657 323.607 144.065 321.987 144.881 320.536C145.719 319.085 146.853 317.952 148.281 317.136C149.731 316.297 151.341 315.878 153.109 315.878C155.103 315.878 156.849 316.467 158.345 317.646C158.413 312.07 158.447 308.058 158.447 305.61C158.447 305.043 158.639 304.567 159.025 304.182C159.41 303.797 159.875 303.604 160.419 303.604C161.053 303.604 161.563 303.797 161.949 304.182C162.334 304.545 162.527 305.021 162.527 305.61L162.391 320.264L162.323 328.526C162.3 328.979 162.334 329.433 162.425 329.886C162.538 330.339 162.719 330.668 162.969 330.872ZM153.109 330.6C154.627 330.6 155.851 330.135 156.781 329.206C157.71 328.277 158.175 327.007 158.175 325.398C158.175 323.834 157.699 322.542 156.747 321.522C155.795 320.502 154.593 319.992 153.143 319.992C152.145 319.992 151.227 320.23 150.389 320.706C149.573 321.182 148.927 321.839 148.451 322.678C147.997 323.494 147.771 324.412 147.771 325.432C147.771 327.019 148.258 328.277 149.233 329.206C150.207 330.135 151.499 330.6 153.109 330.6ZM182.981 331.11C183.616 331.314 184.069 331.552 184.341 331.824C184.636 332.096 184.783 332.47 184.783 332.946C184.783 333.513 184.534 333.989 184.035 334.374C183.559 334.782 182.981 334.986 182.301 334.986C181.281 334.986 180.397 334.68 179.649 334.068C178.924 333.456 178.493 332.651 178.357 331.654C178.198 330.702 178.119 329.489 178.119 328.016C178.119 327.132 178.13 326.452 178.153 325.976C177.337 326.475 176.238 326.973 174.855 327.472C173.518 327.925 172.566 328.345 171.999 328.73C171.455 329.115 171.183 329.557 171.183 330.056C171.183 330.351 171.308 330.589 171.557 330.77C171.829 330.951 172.158 331.042 172.543 331.042C172.815 331.042 173.11 330.997 173.427 330.906C173.767 330.793 174.05 330.634 174.277 330.43C174.594 330.113 175.025 329.954 175.569 329.954C176.136 329.954 176.589 330.135 176.929 330.498C177.269 330.861 177.439 331.314 177.439 331.858C177.439 332.085 177.371 332.357 177.235 332.674C177.122 332.969 176.986 333.207 176.827 333.388C175.875 334.476 174.447 335.02 172.543 335.02C170.979 335.02 169.71 334.612 168.735 333.796C167.76 332.957 167.273 331.869 167.273 330.532C167.273 327.608 169.585 325.443 174.209 324.038C175.637 323.585 176.702 323.154 177.405 322.746C178.108 322.315 178.47 321.873 178.493 321.42C178.47 320.944 178.21 320.57 177.711 320.298C177.212 320.003 176.544 319.856 175.705 319.856C173.96 319.856 172.77 320.457 172.135 321.658C171.954 321.998 171.693 322.281 171.353 322.508C171.036 322.712 170.696 322.814 170.333 322.814C169.766 322.814 169.279 322.621 168.871 322.236C168.463 321.828 168.259 321.341 168.259 320.774C168.259 319.935 168.61 319.153 169.313 318.428C170.016 317.68 170.945 317.079 172.101 316.626C173.257 316.173 174.458 315.946 175.705 315.946C177.858 315.946 179.513 316.433 180.669 317.408C181.825 318.383 182.403 319.777 182.403 321.59V321.964C182.267 326.089 182.199 328.424 182.199 328.968C182.199 329.331 182.244 329.761 182.335 330.26C182.358 330.441 182.437 330.623 182.573 330.804C182.732 330.963 182.868 331.065 182.981 331.11ZM202.296 316.014C202.886 316.014 203.373 316.218 203.758 316.626C204.166 317.034 204.37 317.521 204.37 318.088C204.37 318.383 204.325 318.655 204.234 318.904L196.788 334.986C195.496 337.751 194.295 339.825 193.184 341.208C192.096 342.591 190.918 343.452 189.648 343.792C189.422 343.837 189.24 343.86 189.104 343.86C188.583 343.86 188.118 343.656 187.71 343.248C187.302 342.84 187.098 342.353 187.098 341.786C187.098 341.333 187.246 340.913 187.54 340.528C187.835 340.165 188.209 339.916 188.662 339.78C189.342 339.599 189.988 339.066 190.6 338.182C191.235 337.321 191.949 336.006 192.742 334.238L186.622 318.87C186.509 318.598 186.452 318.337 186.452 318.088C186.452 317.589 186.656 317.136 187.064 316.728C187.472 316.32 187.948 316.116 188.492 316.116C188.923 316.116 189.308 316.241 189.648 316.49C189.988 316.739 190.249 317.057 190.43 317.442L194.986 329.24L200.392 317.272C200.551 316.887 200.8 316.581 201.14 316.354C201.503 316.127 201.888 316.014 202.296 316.014ZM224.417 332.436C224.417 333.003 224.213 333.49 223.805 333.898C223.419 334.283 222.943 334.476 222.377 334.476C221.81 334.476 221.323 334.283 220.915 333.898C220.529 333.49 220.337 333.003 220.337 332.436V308.33C220.337 307.763 220.529 307.287 220.915 306.902C221.323 306.494 221.81 306.29 222.377 306.29C222.943 306.29 223.419 306.494 223.805 306.902C224.213 307.287 224.417 307.763 224.417 308.33V332.436ZM258.835 330.872C259.221 331.189 259.504 331.495 259.685 331.79C259.889 332.085 259.991 332.447 259.991 332.878C259.991 333.377 259.765 333.773 259.311 334.068C258.858 334.363 258.325 334.51 257.713 334.51C256.603 334.51 255.719 334.045 255.061 333.116C254.427 332.164 254.109 330.725 254.109 328.798L254.143 324.106C254.143 322.973 253.792 322.043 253.089 321.318C252.409 320.57 251.548 320.196 250.505 320.196C248.057 320.196 246.765 321.567 246.629 324.31L246.561 332.776C246.561 333.343 246.357 333.819 245.949 334.204C245.564 334.612 245.088 334.816 244.521 334.816C243.955 334.816 243.467 334.612 243.059 334.204C242.674 333.819 242.481 333.343 242.481 332.776C242.481 330.849 242.504 327.359 242.549 322.304C242.617 317.249 242.685 312.999 242.753 309.554C242.753 308.353 242.527 307.571 242.073 307.208C241.688 306.891 241.393 306.585 241.189 306.29C241.008 305.995 240.917 305.633 240.917 305.202C240.917 304.703 241.144 304.307 241.597 304.012C242.051 303.717 242.583 303.57 243.195 303.57C244.329 303.57 245.213 304.069 245.847 305.066C246.505 306.041 246.822 307.537 246.799 309.554L246.697 317.646C247.808 316.83 249.077 316.422 250.505 316.422C251.956 316.422 253.271 316.705 254.449 317.272C255.628 317.839 256.546 318.621 257.203 319.618C257.883 320.615 258.223 321.726 258.223 322.95L258.189 328.798C258.189 329.841 258.405 330.532 258.835 330.872ZM266.87 312.41C266.167 312.41 265.566 312.172 265.068 311.696C264.592 311.197 264.354 310.608 264.354 309.928C264.354 309.248 264.592 308.67 265.068 308.194C265.566 307.695 266.167 307.446 266.87 307.446C267.55 307.446 268.128 307.684 268.604 308.16C269.08 308.636 269.318 309.225 269.318 309.928C269.318 310.608 269.068 311.197 268.57 311.696C268.094 312.172 267.527 312.41 266.87 312.41ZM267.176 334.408C266.7 334.408 266.258 334.238 265.85 333.898C265.442 333.535 265.238 333.071 265.238 332.504L265.408 322.474C265.453 321.273 265.26 320.491 264.83 320.128C264.444 319.833 264.15 319.539 263.946 319.244C263.764 318.949 263.662 318.587 263.64 318.156C263.64 317.657 263.866 317.261 264.32 316.966C264.796 316.649 265.351 316.49 265.986 316.49C267.119 316.49 267.992 316.977 268.604 317.952C269.238 318.927 269.533 320.411 269.488 322.406C269.374 327.098 269.318 330.464 269.318 332.504C269.318 333.116 269.091 333.592 268.638 333.932C268.184 334.249 267.697 334.408 267.176 334.408ZM279.577 320.944V328.254C279.577 329.523 280.269 330.351 281.651 330.736C282.15 330.872 282.569 331.144 282.909 331.552C283.249 331.96 283.419 332.402 283.419 332.878C283.419 333.399 283.204 333.841 282.773 334.204C282.365 334.567 281.878 334.748 281.311 334.748C279.43 334.748 277.991 334.204 276.993 333.116C275.996 332.028 275.497 330.43 275.497 328.322V320.944H274.647C274.081 320.944 273.593 320.751 273.185 320.366C272.8 319.958 272.607 319.471 272.607 318.904C272.607 318.337 272.8 317.861 273.185 317.476C273.593 317.068 274.081 316.864 274.647 316.864H275.497V311.424C275.497 310.857 275.69 310.381 276.075 309.996C276.483 309.588 276.971 309.384 277.537 309.384C278.104 309.384 278.58 309.588 278.965 309.996C279.373 310.381 279.577 310.857 279.577 311.424V316.864H282.229C282.796 316.864 283.272 317.068 283.657 317.476C284.065 317.861 284.269 318.337 284.269 318.904C284.269 319.471 284.065 319.958 283.657 320.366C283.272 320.751 282.796 320.944 282.229 320.944H279.577ZM327.227 331.178C327.613 331.495 327.896 331.801 328.077 332.096C328.281 332.391 328.383 332.742 328.383 333.15C328.383 333.649 328.157 334.045 327.703 334.34C327.25 334.657 326.717 334.816 326.105 334.816C324.972 334.816 324.077 334.317 323.419 333.32C322.785 332.323 322.479 330.815 322.501 328.798V323.664C322.501 322.553 322.218 321.703 321.651 321.114C321.107 320.502 320.291 320.196 319.203 320.196C317.889 320.196 316.903 320.581 316.245 321.352C315.588 322.1 315.248 322.984 315.225 324.004C315.225 325.024 315.214 326.441 315.191 328.254C315.169 330.045 315.146 331.439 315.123 332.436C315.101 333.003 314.874 333.456 314.443 333.796C314.035 334.136 313.593 334.306 313.117 334.306C312.505 334.306 312.007 334.136 311.621 333.796C311.236 333.433 311.043 332.98 311.043 332.436L311.111 323.018C311.111 322.202 310.851 321.511 310.329 320.944C309.831 320.355 309.071 320.06 308.051 320.06C306.827 320.06 305.864 320.434 305.161 321.182C304.481 321.907 304.13 322.769 304.107 323.766L304.073 323.732L303.937 332.47C303.937 333.059 303.733 333.524 303.325 333.864C302.917 334.204 302.385 334.374 301.727 334.374C301.251 334.374 300.821 334.204 300.435 333.864C300.05 333.501 299.857 333.037 299.857 332.47C299.857 330.271 299.914 326.939 300.027 322.474C300.027 321.25 299.823 320.468 299.415 320.128C299.03 319.811 298.735 319.505 298.531 319.21C298.35 318.915 298.259 318.553 298.259 318.122C298.259 317.623 298.486 317.227 298.939 316.932C299.393 316.637 299.925 316.49 300.537 316.49C301.217 316.49 301.818 316.671 302.339 317.034C302.861 317.374 303.269 317.907 303.563 318.632C304.13 317.929 304.833 317.385 305.671 317C306.51 316.615 307.439 316.422 308.459 316.422C309.638 316.422 310.703 316.705 311.655 317.272C312.63 317.839 313.423 318.621 314.035 319.618C314.557 318.643 315.305 317.873 316.279 317.306C317.254 316.717 318.342 316.422 319.543 316.422C321.742 316.422 323.465 317.023 324.711 318.224C325.958 319.403 326.581 321.125 326.581 323.392V328.832C326.559 329.285 326.593 329.739 326.683 330.192C326.797 330.645 326.978 330.974 327.227 331.178ZM346.863 316.014C347.452 316.014 347.939 316.218 348.325 316.626C348.733 317.034 348.937 317.521 348.937 318.088C348.937 318.383 348.891 318.655 348.801 318.904L341.355 334.986C340.063 337.751 338.861 339.825 337.751 341.208C336.663 342.591 335.484 343.452 334.215 343.792C333.988 343.837 333.807 343.86 333.671 343.86C333.149 343.86 332.685 343.656 332.277 343.248C331.869 342.84 331.665 342.353 331.665 341.786C331.665 341.333 331.812 340.913 332.107 340.528C332.401 340.165 332.775 339.916 333.229 339.78C333.909 339.599 334.555 339.066 335.167 338.182C335.801 337.321 336.515 336.006 337.309 334.238L331.189 318.87C331.075 318.598 331.019 318.337 331.019 318.088C331.019 317.589 331.223 317.136 331.631 316.728C332.039 316.32 332.515 316.116 333.059 316.116C333.489 316.116 333.875 316.241 334.215 316.49C334.555 316.739 334.815 317.057 334.997 317.442L339.553 329.24L344.959 317.272C345.117 316.887 345.367 316.581 345.707 316.354C346.069 316.127 346.455 316.014 346.863 316.014ZM372.179 316.252C372.746 316.252 373.222 316.456 373.607 316.864C374.015 317.249 374.219 317.725 374.219 318.292C374.219 318.859 374.015 319.346 373.607 319.754C373.222 320.139 372.746 320.332 372.179 320.332H369.527V332.64C369.527 333.207 369.323 333.683 368.915 334.068C368.53 334.476 368.042 334.68 367.453 334.68C366.886 334.68 366.41 334.476 366.025 334.068C365.64 333.683 365.447 333.207 365.447 332.64V320.332H364.495C363.928 320.332 363.441 320.139 363.033 319.754C362.648 319.346 362.455 318.859 362.455 318.292C362.455 317.725 362.648 317.249 363.033 316.864C363.441 316.456 363.928 316.252 364.495 316.252H365.447V311.73C365.447 309.463 365.98 307.559 367.045 306.018C368.11 304.477 369.516 303.559 371.261 303.264C371.329 303.241 371.42 303.23 371.533 303.23C372.1 303.23 372.587 303.434 372.995 303.842C373.403 304.25 373.607 304.737 373.607 305.304C373.607 305.78 373.437 306.211 373.097 306.596C372.78 306.981 372.372 307.219 371.873 307.31C371.193 307.423 370.626 307.888 370.173 308.704C369.742 309.497 369.527 310.506 369.527 311.73V316.252H372.179ZM379.965 312.41C379.262 312.41 378.662 312.172 378.163 311.696C377.687 311.197 377.449 310.608 377.449 309.928C377.449 309.248 377.687 308.67 378.163 308.194C378.662 307.695 379.262 307.446 379.965 307.446C380.645 307.446 381.223 307.684 381.699 308.16C382.175 308.636 382.413 309.225 382.413 309.928C382.413 310.608 382.164 311.197 381.665 311.696C381.189 312.172 380.622 312.41 379.965 312.41ZM380.271 334.408C379.795 334.408 379.353 334.238 378.945 333.898C378.537 333.535 378.333 333.071 378.333 332.504L378.503 322.474C378.548 321.273 378.356 320.491 377.925 320.128C377.54 319.833 377.245 319.539 377.041 319.244C376.86 318.949 376.758 318.587 376.735 318.156C376.735 317.657 376.962 317.261 377.415 316.966C377.891 316.649 378.446 316.49 379.081 316.49C380.214 316.49 381.087 316.977 381.699 317.952C382.334 318.927 382.628 320.411 382.583 322.406C382.47 327.098 382.413 330.464 382.413 332.504C382.413 333.116 382.186 333.592 381.733 333.932C381.28 334.249 380.792 334.408 380.271 334.408ZM395.727 316.184C396.679 316.184 397.552 316.388 398.345 316.796C399.161 317.204 399.796 317.771 400.249 318.496C400.702 319.199 400.929 319.992 400.929 320.876C400.929 321.941 400.623 322.882 400.011 323.698C399.399 324.491 398.583 325.115 397.563 325.568C397.2 325.659 396.94 325.704 396.781 325.704C396.214 325.704 395.727 325.511 395.319 325.126C394.911 324.718 394.707 324.231 394.707 323.664C394.707 323.233 394.82 322.848 395.047 322.508C395.296 322.145 395.614 321.896 395.999 321.76C396.203 321.669 396.396 321.533 396.577 321.352C396.758 321.171 396.849 321.012 396.849 320.876C396.849 320.627 396.724 320.4 396.475 320.196C396.248 319.992 395.999 319.89 395.727 319.89H392.225C392.406 320.57 392.497 321.261 392.497 321.964C392.474 323.301 392.429 325.103 392.361 327.37C392.293 329.637 392.236 331.382 392.191 332.606C392.146 333.173 391.93 333.649 391.545 334.034C391.16 334.442 390.695 334.646 390.151 334.646C389.584 334.646 389.097 334.442 388.689 334.034C388.304 333.626 388.111 333.15 388.111 332.606L388.213 328.594C388.349 325.013 388.417 322.757 388.417 321.828C388.417 320.74 388.1 320.015 387.465 319.652C387.125 319.471 386.876 319.233 386.717 318.938C386.581 318.621 386.513 318.292 386.513 317.952C386.513 317.385 386.694 316.955 387.057 316.66C387.42 316.343 387.896 316.184 388.485 316.184H395.727ZM411.524 334.816C409.938 334.816 408.43 334.453 407.002 333.728C405.574 332.98 404.554 332.005 403.942 330.804C403.761 330.441 403.67 330.09 403.67 329.75C403.67 329.183 403.863 328.707 404.248 328.322C404.656 327.914 405.144 327.71 405.71 327.71C406.05 327.71 406.368 327.801 406.662 327.982C406.957 328.141 407.218 328.39 407.444 328.73C407.943 329.523 408.566 330.113 409.314 330.498C410.062 330.861 410.799 331.042 411.524 331.042C412.499 331.042 413.338 330.906 414.04 330.634C414.743 330.339 415.094 329.943 415.094 329.444C415.094 329.104 414.777 328.764 414.142 328.424C413.508 328.061 412.408 327.608 410.844 327.064C409.484 326.588 408.362 326.135 407.478 325.704C406.617 325.251 405.892 324.673 405.302 323.97C404.736 323.245 404.452 322.338 404.452 321.25C404.452 320.207 404.758 319.301 405.37 318.53C406.005 317.737 406.855 317.125 407.92 316.694C409.008 316.263 410.198 316.048 411.49 316.048C413.19 316.048 414.664 316.388 415.91 317.068C417.18 317.725 418.132 318.7 418.766 319.992C418.902 320.241 418.97 320.57 418.97 320.978C418.97 321.522 418.778 321.998 418.392 322.406C418.007 322.814 417.531 323.018 416.964 323.018C416.602 323.018 416.25 322.916 415.91 322.712C415.593 322.485 415.321 322.191 415.094 321.828C414.709 321.193 414.188 320.706 413.53 320.366C412.873 320.003 412.102 319.822 411.218 319.822C410.402 319.822 409.745 319.958 409.246 320.23C408.77 320.479 408.532 320.819 408.532 321.25C408.532 321.703 408.782 322.089 409.28 322.406C409.802 322.723 410.844 323.12 412.408 323.596C413.882 324.049 415.094 324.514 416.046 324.99C416.998 325.466 417.758 326.067 418.324 326.792C418.891 327.495 419.174 328.379 419.174 329.444C419.174 331.121 418.483 332.436 417.1 333.388C415.74 334.34 413.882 334.816 411.524 334.816ZM428.526 320.944V328.254C428.526 329.523 429.218 330.351 430.6 330.736C431.099 330.872 431.518 331.144 431.858 331.552C432.198 331.96 432.368 332.402 432.368 332.878C432.368 333.399 432.153 333.841 431.722 334.204C431.314 334.567 430.827 334.748 430.26 334.748C428.379 334.748 426.94 334.204 425.942 333.116C424.945 332.028 424.446 330.43 424.446 328.322V320.944H423.596C423.03 320.944 422.542 320.751 422.134 320.366C421.749 319.958 421.556 319.471 421.556 318.904C421.556 318.337 421.749 317.861 422.134 317.476C422.542 317.068 423.03 316.864 423.596 316.864H424.446V311.424C424.446 310.857 424.639 310.381 425.024 309.996C425.432 309.588 425.92 309.384 426.486 309.384C427.053 309.384 427.529 309.588 427.914 309.996C428.322 310.381 428.526 310.857 428.526 311.424V316.864H431.178C431.745 316.864 432.221 317.068 432.606 317.476C433.014 317.861 433.218 318.337 433.218 318.904C433.218 319.471 433.014 319.958 432.606 320.366C432.221 320.751 431.745 320.944 431.178 320.944H428.526ZM454.688 334.816C453.102 334.816 451.594 334.453 450.166 333.728C448.738 332.98 447.718 332.005 447.106 330.804C446.925 330.441 446.834 330.09 446.834 329.75C446.834 329.183 447.027 328.707 447.412 328.322C447.82 327.914 448.308 327.71 448.874 327.71C449.214 327.71 449.532 327.801 449.826 327.982C450.121 328.141 450.382 328.39 450.608 328.73C451.107 329.523 451.73 330.113 452.478 330.498C453.226 330.861 453.963 331.042 454.688 331.042C455.663 331.042 456.502 330.906 457.204 330.634C457.907 330.339 458.258 329.943 458.258 329.444C458.258 329.104 457.941 328.764 457.306 328.424C456.672 328.061 455.572 327.608 454.008 327.064C452.648 326.588 451.526 326.135 450.642 325.704C449.781 325.251 449.056 324.673 448.466 323.97C447.9 323.245 447.616 322.338 447.616 321.25C447.616 320.207 447.922 319.301 448.534 318.53C449.169 317.737 450.019 317.125 451.084 316.694C452.172 316.263 453.362 316.048 454.654 316.048C456.354 316.048 457.828 316.388 459.074 317.068C460.344 317.725 461.296 318.7 461.93 319.992C462.066 320.241 462.134 320.57 462.134 320.978C462.134 321.522 461.942 321.998 461.556 322.406C461.171 322.814 460.695 323.018 460.128 323.018C459.766 323.018 459.414 322.916 459.074 322.712C458.757 322.485 458.485 322.191 458.258 321.828C457.873 321.193 457.352 320.706 456.694 320.366C456.037 320.003 455.266 319.822 454.382 319.822C453.566 319.822 452.909 319.958 452.41 320.23C451.934 320.479 451.696 320.819 451.696 321.25C451.696 321.703 451.946 322.089 452.444 322.406C452.966 322.723 454.008 323.12 455.572 323.596C457.046 324.049 458.258 324.514 459.21 324.99C460.162 325.466 460.922 326.067 461.488 326.792C462.055 327.495 462.338 328.379 462.338 329.444C462.338 331.121 461.647 332.436 460.264 333.388C458.904 334.34 457.046 334.816 454.688 334.816ZM483.523 330.872C483.908 331.189 484.191 331.495 484.373 331.79C484.577 332.085 484.679 332.447 484.679 332.878C484.679 333.377 484.452 333.773 483.999 334.068C483.545 334.363 483.013 334.51 482.401 334.51C481.29 334.51 480.406 334.045 479.749 333.116C479.114 332.164 478.797 330.725 478.797 328.798L478.831 324.106C478.831 322.973 478.479 322.043 477.777 321.318C477.097 320.57 476.235 320.196 475.193 320.196C472.677 320.196 471.396 321.658 471.351 324.582V324.548C471.26 327.721 471.215 330.305 471.215 332.3C471.215 332.98 471.011 333.501 470.603 333.864C470.195 334.204 469.741 334.374 469.243 334.374C468.721 334.374 468.234 334.193 467.781 333.83C467.35 333.467 467.135 332.957 467.135 332.3C467.135 330.124 467.191 326.849 467.305 322.474C467.305 321.25 467.101 320.468 466.693 320.128C466.307 319.811 466.013 319.505 465.809 319.21C465.627 318.915 465.537 318.553 465.537 318.122C465.537 317.623 465.763 317.227 466.217 316.932C466.67 316.637 467.203 316.49 467.815 316.49C469.129 316.49 470.081 317.091 470.671 318.292C471.237 317.703 471.906 317.249 472.677 316.932C473.47 316.592 474.309 316.422 475.193 316.422C476.643 316.422 477.958 316.705 479.137 317.272C480.315 317.839 481.233 318.621 481.891 319.618C482.571 320.615 482.911 321.726 482.911 322.95C482.911 325.035 482.899 326.894 482.877 328.526C482.877 329.727 483.092 330.509 483.523 330.872ZM496.621 334.986C494.876 334.986 493.3 334.578 491.895 333.762C490.512 332.946 489.424 331.813 488.631 330.362C487.86 328.911 487.475 327.268 487.475 325.432C487.475 323.619 487.86 321.987 488.631 320.536C489.424 319.085 490.512 317.952 491.895 317.136C493.3 316.32 494.876 315.912 496.621 315.912C498.366 315.912 499.93 316.32 501.313 317.136C502.696 317.952 503.772 319.085 504.543 320.536C505.336 321.987 505.733 323.619 505.733 325.432C505.733 327.268 505.336 328.911 504.543 330.362C503.772 331.813 502.696 332.946 501.313 333.762C499.93 334.578 498.366 334.986 496.621 334.986ZM496.621 330.906C498.117 330.906 499.33 330.407 500.259 329.41C501.188 328.39 501.653 327.064 501.653 325.432C501.653 323.823 501.188 322.519 500.259 321.522C499.33 320.502 498.117 319.992 496.621 319.992C495.102 319.992 493.878 320.502 492.949 321.522C492.02 322.519 491.555 323.823 491.555 325.432C491.555 327.064 492.02 328.39 492.949 329.41C493.878 330.407 495.102 330.906 496.621 330.906ZM532.34 316.15C532.93 316.15 533.417 316.343 533.802 316.728C534.188 317.091 534.38 317.555 534.38 318.122C534.38 318.439 534.312 318.734 534.176 319.006L527.852 333.558C527.49 334.397 526.912 334.816 526.118 334.816C525.756 334.816 525.404 334.703 525.064 334.476C524.747 334.249 524.486 333.921 524.282 333.49L521.256 327.2L517.856 333.592C517.38 334.453 516.78 334.884 516.054 334.884C515.714 334.884 515.386 334.759 515.068 334.51C514.774 334.283 514.524 333.943 514.32 333.49L508.098 319.04C507.985 318.813 507.928 318.541 507.928 318.224C507.928 317.68 508.121 317.204 508.506 316.796C508.892 316.388 509.368 316.184 509.934 316.184C510.342 316.184 510.716 316.297 511.056 316.524C511.396 316.728 511.646 317.023 511.804 317.408L516.258 328.186L518.944 322.44L517.346 319.108C517.21 318.836 517.142 318.564 517.142 318.292C517.142 317.748 517.335 317.272 517.72 316.864C518.128 316.433 518.616 316.218 519.182 316.218C519.568 316.218 519.93 316.331 520.27 316.558C520.633 316.785 520.894 317.079 521.052 317.442L526.016 327.914L530.47 317.374C530.629 316.989 530.878 316.694 531.218 316.49C531.558 316.263 531.932 316.15 532.34 316.15ZM548.4 315.912C550.168 315.912 551.766 316.331 553.194 317.17C554.645 317.986 555.778 319.119 556.594 320.57C557.433 322.021 557.852 323.641 557.852 325.432C557.852 327.268 557.444 328.911 556.628 330.362C555.812 331.813 554.679 332.957 553.228 333.796C551.8 334.612 550.191 335.02 548.4 335.02C545.635 335.02 543.527 334.317 542.076 332.912C539.719 331.031 538.54 328.492 538.54 325.296C538.54 319.652 538.574 314.416 538.642 309.588C538.687 308.409 538.483 307.627 538.03 307.242C537.645 306.925 537.35 306.619 537.146 306.324C536.965 306.029 536.874 305.667 536.874 305.236C536.874 304.737 537.101 304.341 537.554 304.046C538.007 303.751 538.54 303.604 539.152 303.604C540.285 303.604 541.169 304.103 541.804 305.1C542.461 306.075 542.767 307.571 542.722 309.588L542.62 318.122C543.391 317.419 544.263 316.875 545.238 316.49C546.235 316.105 547.289 315.912 548.4 315.912ZM548.4 330.94C549.964 330.94 551.245 330.43 552.242 329.41C553.262 328.367 553.772 327.041 553.772 325.432C553.772 324.389 553.534 323.46 553.058 322.644C552.582 321.805 551.936 321.159 551.12 320.706C550.304 320.23 549.397 319.992 548.4 319.992C547.448 319.992 546.587 320.23 545.816 320.706C545.045 321.159 544.433 321.805 543.98 322.644C543.549 323.46 543.334 324.389 543.334 325.432C543.334 327.064 543.799 328.39 544.728 329.41C545.68 330.43 546.904 330.94 548.4 330.94ZM569.801 334.986C568.055 334.986 566.48 334.578 565.075 333.762C563.692 332.946 562.604 331.813 561.811 330.362C561.04 328.911 560.655 327.268 560.655 325.432C560.655 323.619 561.04 321.987 561.811 320.536C562.604 319.085 563.692 317.952 565.075 317.136C566.48 316.32 568.055 315.912 569.801 315.912C571.546 315.912 573.11 316.32 574.493 317.136C575.875 317.952 576.952 319.085 577.723 320.536C578.516 321.987 578.913 323.619 578.913 325.432C578.913 327.268 578.516 328.911 577.723 330.362C576.952 331.813 575.875 332.946 574.493 333.762C573.11 334.578 571.546 334.986 569.801 334.986ZM569.801 330.906C571.297 330.906 572.509 330.407 573.439 329.41C574.368 328.39 574.833 327.064 574.833 325.432C574.833 323.823 574.368 322.519 573.439 321.522C572.509 320.502 571.297 319.992 569.801 319.992C568.282 319.992 567.058 320.502 566.129 321.522C565.199 322.519 564.735 323.823 564.735 325.432C564.735 327.064 565.199 328.39 566.129 329.41C567.058 330.407 568.282 330.906 569.801 330.906ZM597.788 331.11C598.422 331.314 598.876 331.552 599.148 331.824C599.442 332.096 599.59 332.47 599.59 332.946C599.59 333.513 599.34 333.989 598.842 334.374C598.366 334.782 597.788 334.986 597.108 334.986C596.088 334.986 595.204 334.68 594.456 334.068C593.73 333.456 593.3 332.651 593.164 331.654C593.005 330.702 592.926 329.489 592.926 328.016C592.926 327.132 592.937 326.452 592.96 325.976C592.144 326.475 591.044 326.973 589.662 327.472C588.324 327.925 587.372 328.345 586.806 328.73C586.262 329.115 585.99 329.557 585.99 330.056C585.99 330.351 586.114 330.589 586.364 330.77C586.636 330.951 586.964 331.042 587.35 331.042C587.622 331.042 587.916 330.997 588.234 330.906C588.574 330.793 588.857 330.634 589.084 330.43C589.401 330.113 589.832 329.954 590.376 329.954C590.942 329.954 591.396 330.135 591.736 330.498C592.076 330.861 592.246 331.314 592.246 331.858C592.246 332.085 592.178 332.357 592.042 332.674C591.928 332.969 591.792 333.207 591.634 333.388C590.682 334.476 589.254 335.02 587.35 335.02C585.786 335.02 584.516 334.612 583.542 333.796C582.567 332.957 582.08 331.869 582.08 330.532C582.08 327.608 584.392 325.443 589.016 324.038C590.444 323.585 591.509 323.154 592.212 322.746C592.914 322.315 593.277 321.873 593.3 321.42C593.277 320.944 593.016 320.57 592.518 320.298C592.019 320.003 591.35 319.856 590.512 319.856C588.766 319.856 587.576 320.457 586.942 321.658C586.76 321.998 586.5 322.281 586.16 322.508C585.842 322.712 585.502 322.814 585.14 322.814C584.573 322.814 584.086 322.621 583.678 322.236C583.27 321.828 583.066 321.341 583.066 320.774C583.066 319.935 583.417 319.153 584.12 318.428C584.822 317.68 585.752 317.079 586.908 316.626C588.064 316.173 589.265 315.946 590.512 315.946C592.665 315.946 594.32 316.433 595.476 317.408C596.632 318.383 597.21 319.777 597.21 321.59V321.964C597.074 326.089 597.006 328.424 597.006 328.968C597.006 329.331 597.051 329.761 597.142 330.26C597.164 330.441 597.244 330.623 597.38 330.804C597.538 330.963 597.674 331.065 597.788 331.11ZM611.581 316.184C612.533 316.184 613.405 316.388 614.199 316.796C615.015 317.204 615.649 317.771 616.103 318.496C616.556 319.199 616.783 319.992 616.783 320.876C616.783 321.941 616.477 322.882 615.865 323.698C615.253 324.491 614.437 325.115 613.417 325.568C613.054 325.659 612.793 325.704 612.635 325.704C612.068 325.704 611.581 325.511 611.173 325.126C610.765 324.718 610.561 324.231 610.561 323.664C610.561 323.233 610.674 322.848 610.901 322.508C611.15 322.145 611.467 321.896 611.853 321.76C612.057 321.669 612.249 321.533 612.431 321.352C612.612 321.171 612.703 321.012 612.703 320.876C612.703 320.627 612.578 320.4 612.329 320.196C612.102 319.992 611.853 319.89 611.581 319.89H608.079C608.26 320.57 608.351 321.261 608.351 321.964C608.328 323.301 608.283 325.103 608.215 327.37C608.147 329.637 608.09 331.382 608.045 332.606C607.999 333.173 607.784 333.649 607.399 334.034C607.013 334.442 606.549 334.646 606.005 334.646C605.438 334.646 604.951 334.442 604.543 334.034C604.157 333.626 603.965 333.15 603.965 332.606L604.067 328.594C604.203 325.013 604.271 322.757 604.271 321.828C604.271 320.74 603.953 320.015 603.319 319.652C602.979 319.471 602.729 319.233 602.571 318.938C602.435 318.621 602.367 318.292 602.367 317.952C602.367 317.385 602.548 316.955 602.911 316.66C603.273 316.343 603.749 316.184 604.339 316.184H611.581ZM638.836 330.872C639.221 331.189 639.505 331.495 639.686 331.79C639.89 332.085 639.992 332.447 639.992 332.878C639.992 333.377 639.765 333.773 639.312 334.068C638.859 334.363 638.326 334.51 637.714 334.51C636.399 334.51 635.425 333.875 634.79 332.606C634.042 333.286 633.169 333.796 632.172 334.136C631.197 334.499 630.132 334.68 628.976 334.68C627.163 334.68 625.531 334.295 624.08 333.524C622.652 332.753 621.53 331.665 620.714 330.26C619.921 328.855 619.524 327.234 619.524 325.398C619.524 323.607 619.932 321.987 620.748 320.536C621.587 319.085 622.72 317.952 624.148 317.136C625.599 316.297 627.208 315.878 628.976 315.878C630.971 315.878 632.716 316.467 634.212 317.646C634.28 312.07 634.314 308.058 634.314 305.61C634.314 305.043 634.507 304.567 634.892 304.182C635.277 303.797 635.742 303.604 636.286 303.604C636.921 303.604 637.431 303.797 637.816 304.182C638.201 304.545 638.394 305.021 638.394 305.61L638.258 320.264L638.19 328.526C638.167 328.979 638.201 329.433 638.292 329.886C638.405 330.339 638.587 330.668 638.836 330.872ZM628.976 330.6C630.495 330.6 631.719 330.135 632.648 329.206C633.577 328.277 634.042 327.007 634.042 325.398C634.042 323.834 633.566 322.542 632.614 321.522C631.662 320.502 630.461 319.992 629.01 319.992C628.013 319.992 627.095 320.23 626.256 320.706C625.44 321.182 624.794 321.839 624.318 322.678C623.865 323.494 623.638 324.412 623.638 325.432C623.638 327.019 624.125 328.277 625.1 329.206C626.075 330.135 627.367 330.6 628.976 330.6ZM666.974 332.504C666.974 333.093 666.759 333.592 666.328 334C665.92 334.431 665.433 334.646 664.866 334.646C664.277 334.646 663.767 334.431 663.336 334C662.928 333.592 662.724 333.093 662.724 332.504V313.26L659.494 316.116C659.064 316.479 658.599 316.66 658.1 316.66C657.511 316.66 657.001 316.456 656.57 316.048C656.162 315.64 655.958 315.141 655.958 314.552C655.958 314.235 656.026 313.929 656.162 313.634C656.298 313.339 656.48 313.101 656.706 312.92L663.574 306.8C664.073 306.369 664.56 306.154 665.036 306.154C665.58 306.154 666.034 306.358 666.396 306.766C666.782 307.151 666.974 307.661 666.974 308.296V332.504ZM690.385 318.802C691.541 319.595 692.437 320.615 693.071 321.862C693.729 323.109 694.057 324.503 694.057 326.044C694.057 327.676 693.649 329.183 692.833 330.566C692.017 331.926 690.907 333.003 689.501 333.796C688.096 334.589 686.555 334.986 684.877 334.986C683.177 334.986 681.613 334.589 680.185 333.796C678.78 333.003 677.669 331.926 676.853 330.566C676.037 329.183 675.629 327.676 675.629 326.044C675.629 324.548 675.969 323.177 676.649 321.93C677.352 320.683 678.315 319.675 679.539 318.904C678.655 318.224 677.964 317.397 677.465 316.422C676.989 315.447 676.751 314.382 676.751 313.226C676.751 311.821 677.114 310.54 677.839 309.384C678.565 308.228 679.539 307.31 680.763 306.63C682.01 305.95 683.381 305.61 684.877 305.61C686.464 305.61 687.903 305.95 689.195 306.63C690.51 307.287 691.541 308.205 692.289 309.384C693.037 310.54 693.411 311.821 693.411 313.226C693.411 315.538 692.403 317.397 690.385 318.802ZM684.877 309.86C684.197 309.86 683.563 310.03 682.973 310.37C682.384 310.71 681.908 311.163 681.545 311.73C681.205 312.297 681.035 312.897 681.035 313.532C681.035 314.62 681.387 315.493 682.089 316.15C682.815 316.807 683.823 317.159 685.115 317.204C686.271 317.159 687.223 316.819 687.971 316.184C688.742 315.549 689.127 314.654 689.127 313.498C689.127 312.863 688.935 312.274 688.549 311.73C688.164 311.163 687.643 310.71 686.985 310.37C686.328 310.03 685.625 309.86 684.877 309.86ZM684.877 330.702C685.761 330.702 686.577 330.498 687.325 330.09C688.073 329.659 688.663 329.093 689.093 328.39C689.547 327.665 689.773 326.883 689.773 326.044C689.773 324.321 689.354 323.007 688.515 322.1C687.699 321.193 686.475 320.717 684.843 320.672H684.571C683.211 320.808 682.089 321.352 681.205 322.304C680.344 323.256 679.913 324.503 679.913 326.044C679.913 326.883 680.129 327.665 680.559 328.39C681.013 329.093 681.613 329.659 682.361 330.09C683.132 330.498 683.971 330.702 684.877 330.702ZM707.404 334.646C705.432 334.646 703.743 334.068 702.338 332.912C700.933 331.756 699.867 330.101 699.142 327.948C698.417 325.772 698.054 323.188 698.054 320.196C698.054 317.295 698.417 314.79 699.142 312.682C699.867 310.574 700.933 308.965 702.338 307.854C703.743 306.721 705.432 306.154 707.404 306.154C709.376 306.154 711.065 306.721 712.47 307.854C713.875 308.965 714.941 310.574 715.666 312.682C716.391 314.79 716.754 317.295 716.754 320.196C716.754 323.188 716.391 325.772 715.666 327.948C714.941 330.101 713.875 331.756 712.47 332.912C711.065 334.068 709.376 334.646 707.404 334.646ZM707.404 330.396C709.036 330.396 710.294 329.501 711.178 327.71C712.062 325.919 712.504 323.415 712.504 320.196C712.504 317.113 712.062 314.711 711.178 312.988C710.294 311.265 709.036 310.404 707.404 310.404C705.772 310.404 704.514 311.265 703.63 312.988C702.746 314.711 702.304 317.113 702.304 320.196C702.304 323.392 702.746 325.897 703.63 327.71C704.514 329.501 705.772 330.396 707.404 330.396ZM724.287 328.254C723.743 328.254 723.29 328.107 722.927 327.812C722.587 327.517 722.406 327.109 722.383 326.588C722.338 325.84 722.304 323.222 722.281 318.734C722.258 314.246 722.247 310.891 722.247 308.67C722.247 307.831 722.417 307.197 722.757 306.766C723.097 306.313 723.607 306.086 724.287 306.086C724.922 306.086 725.398 306.335 725.715 306.834C726.055 307.31 726.225 307.967 726.225 308.806C726.202 310.982 726.146 313.951 726.055 317.714C725.987 321.454 725.919 324.412 725.851 326.588C725.828 327.064 725.67 327.461 725.375 327.778C725.103 328.095 724.74 328.254 724.287 328.254ZM724.083 334.85C723.358 334.85 722.734 334.578 722.213 334.034C721.692 333.513 721.431 332.889 721.431 332.164C721.431 331.461 721.692 330.849 722.213 330.328C722.734 329.807 723.358 329.546 724.083 329.546C724.786 329.546 725.398 329.807 725.919 330.328C726.463 330.849 726.735 331.461 726.735 332.164C726.735 332.889 726.474 333.513 725.953 334.034C725.432 334.578 724.808 334.85 724.083 334.85Z" fill="black"/>
</svg>
